<mxfile host="app.diagrams.net" modified="2022-03-14T01:29:24.423Z" agent="5.0 (Macintosh; Intel Mac OS X 10_15_7) AppleWebKit/537.36 (KHTML, like Gecko) Chrome/99.0.4844.51 Safari/537.36" etag="X0A-VY2Lw7Di6CS4h02W" version="17.1.1" type="github">
  <diagram id="QqqvXLT0Kv2bRMy47Pn9" name="Page-1">
    <mxGraphModel dx="1234" dy="741" grid="0" gridSize="10" guides="1" tooltips="1" connect="1" arrows="1" fold="1" page="1" pageScale="1" pageWidth="827" pageHeight="1169" math="0" shadow="0">
      <root>
        <mxCell id="0" />
        <mxCell id="1" parent="0" />
        <mxCell id="XyZ_b2aHkikrgPsKvw3E-36" style="edgeStyle=none;rounded=0;orthogonalLoop=1;jettySize=auto;html=1;fontSize=14;startArrow=classic;startFill=1;" edge="1" parent="1">
          <mxGeometry relative="1" as="geometry">
            <mxPoint x="260" y="290" as="targetPoint" />
            <mxPoint x="420" y="290" as="sourcePoint" />
          </mxGeometry>
        </mxCell>
        <mxCell id="XyZ_b2aHkikrgPsKvw3E-22" value="" style="rounded=0;whiteSpace=wrap;html=1;dashed=1;fontSize=14;fillColor=#fff2cc;strokeColor=#d6b656;" vertex="1" parent="1">
          <mxGeometry x="440" y="165" width="300" height="250" as="geometry" />
        </mxCell>
        <mxCell id="XyZ_b2aHkikrgPsKvw3E-20" value="" style="rounded=0;whiteSpace=wrap;html=1;fontSize=14;dashed=1;fillColor=#dae8fc;strokeColor=#6c8ebf;" vertex="1" parent="1">
          <mxGeometry x="90" y="160" width="160" height="250" as="geometry" />
        </mxCell>
        <mxCell id="XyZ_b2aHkikrgPsKvw3E-2" value="修改" style="rounded=0;whiteSpace=wrap;html=1;fontSize=14;" vertex="1" parent="1">
          <mxGeometry x="130" y="270" width="80" height="40" as="geometry" />
        </mxCell>
        <mxCell id="XyZ_b2aHkikrgPsKvw3E-4" value="用户" style="rounded=0;whiteSpace=wrap;html=1;fontSize=14;" vertex="1" parent="1">
          <mxGeometry x="480" y="190" width="100" height="50" as="geometry" />
        </mxCell>
        <mxCell id="XyZ_b2aHkikrgPsKvw3E-5" value="用户组" style="rounded=0;whiteSpace=wrap;html=1;fontSize=14;" vertex="1" parent="1">
          <mxGeometry x="480" y="260" width="100" height="50" as="geometry" />
        </mxCell>
        <mxCell id="XyZ_b2aHkikrgPsKvw3E-6" value="公司" style="rounded=0;whiteSpace=wrap;html=1;fontSize=14;" vertex="1" parent="1">
          <mxGeometry x="530" y="330" width="120" height="40" as="geometry" />
        </mxCell>
        <mxCell id="XyZ_b2aHkikrgPsKvw3E-7" value="用户类型" style="rounded=0;whiteSpace=wrap;html=1;fontSize=14;" vertex="1" parent="1">
          <mxGeometry x="596" y="190" width="114" height="50" as="geometry" />
        </mxCell>
        <mxCell id="XyZ_b2aHkikrgPsKvw3E-8" value="角色" style="rounded=0;whiteSpace=wrap;html=1;fontSize=14;" vertex="1" parent="1">
          <mxGeometry x="596" y="260" width="114" height="50" as="geometry" />
        </mxCell>
        <mxCell id="XyZ_b2aHkikrgPsKvw3E-11" value="管理员" style="rounded=0;whiteSpace=wrap;html=1;fontSize=14;" vertex="1" parent="1">
          <mxGeometry x="130" y="340" width="80" height="40" as="geometry" />
        </mxCell>
        <mxCell id="XyZ_b2aHkikrgPsKvw3E-12" value="查看" style="rounded=0;whiteSpace=wrap;html=1;fontSize=14;" vertex="1" parent="1">
          <mxGeometry x="130" y="200" width="80" height="40" as="geometry" />
        </mxCell>
        <mxCell id="XyZ_b2aHkikrgPsKvw3E-34" style="edgeStyle=none;rounded=0;orthogonalLoop=1;jettySize=auto;html=1;fontSize=14;startArrow=classic;startFill=1;" edge="1" parent="1">
          <mxGeometry relative="1" as="geometry">
            <mxPoint x="450" y="70" as="sourcePoint" />
            <mxPoint x="570" y="150" as="targetPoint" />
          </mxGeometry>
        </mxCell>
        <mxCell id="XyZ_b2aHkikrgPsKvw3E-35" style="edgeStyle=none;rounded=0;orthogonalLoop=1;jettySize=auto;html=1;fontSize=14;startArrow=classic;startFill=1;" edge="1" parent="1">
          <mxGeometry relative="1" as="geometry">
            <mxPoint x="240" y="90" as="sourcePoint" />
            <mxPoint x="190" y="140" as="targetPoint" />
          </mxGeometry>
        </mxCell>
        <mxCell id="XyZ_b2aHkikrgPsKvw3E-37" value="业务数据" style="swimlane;fontStyle=0;childLayout=stackLayout;horizontal=1;startSize=30;horizontalStack=0;resizeParent=1;resizeParentMax=0;resizeLast=0;collapsible=1;marginBottom=0;fontSize=14;fillColor=#d5e8d4;strokeColor=#82b366;" vertex="1" parent="1">
          <mxGeometry x="270" y="20" width="150" height="100" as="geometry" />
        </mxCell>
        <mxCell id="XyZ_b2aHkikrgPsKvw3E-39" value="biz_id" style="text;strokeColor=none;fillColor=none;align=left;verticalAlign=middle;spacingLeft=4;spacingRight=4;overflow=hidden;points=[[0,0.5],[1,0.5]];portConstraint=eastwest;rotatable=0;fontSize=14;" vertex="1" parent="XyZ_b2aHkikrgPsKvw3E-37">
          <mxGeometry y="30" width="150" height="30" as="geometry" />
        </mxCell>
        <mxCell id="XyZ_b2aHkikrgPsKvw3E-40" value="biz_type_id" style="text;strokeColor=none;fillColor=none;align=left;verticalAlign=middle;spacingLeft=4;spacingRight=4;overflow=hidden;points=[[0,0.5],[1,0.5]];portConstraint=eastwest;rotatable=0;fontSize=14;" vertex="1" parent="XyZ_b2aHkikrgPsKvw3E-37">
          <mxGeometry y="60" width="150" height="40" as="geometry" />
        </mxCell>
      </root>
    </mxGraphModel>
  </diagram>
</mxfile>
